<svg xmlns="http://www.w3.org/2000/svg" height="40px" width="40px">
    <title>Peeps</title>

    <circle fill="#4A90E2" cx="19" cy="19" r="19"></circle>
    <g transform="translate(5.800000, 8.000000)" stroke="#FFFFFF" fill="#FFFFFF" stroke-linejoin="round">
        <path d="M0.55,7.7 L0.55,11 C0.55,11.9075 0.7425,12.65 1.65,12.65 L1.65,17.6 L4.95,17.6 L4.95,12.65 C5.8564,12.65 6.0489,11.9064 6.05,11 L6.05,7.7 L0.55,7.7 L0.55,7.7 Z" ></path>
        <path d="M20.35,7.7 L20.35,11 C20.35,11.9075 20.5425,12.65 21.45,12.65 L21.45,17.6 L24.75,17.6 L24.75,12.65 C25.6564,12.65 25.8489,11.9064 25.85,11 L25.85,7.7 L20.35,7.7 L20.35,7.7 Z" ></path>
        <path d="M9.35,7.7 L17.05,7.7 L17.05,13.2 C17.05,14.41 16.06,15.4 14.85,15.4 L14.85,22 L11.55,22 L11.55,15.4 C10.3389,15.4 9.35,14.41 9.35,13.2 L9.35,7.7 L9.35,7.7 Z" ></path>
        <path d="M4.95,3.85 C4.95,4.7608 4.2108,5.5 3.3,5.5 C2.3892,5.5 1.65,4.7608 1.65,3.85 C1.65,2.9392 2.3892,2.2 3.3,2.2 C4.2108,2.2 4.95,2.9392 4.95,3.85 L4.95,3.85 Z" ></path>
        <path d="M24.75,3.85 C24.75,4.7608 24.0108,5.5 23.1,5.5 C22.1892,5.5 21.45,4.7608 21.45,3.85 C21.45,2.9392 22.1892,2.2 23.1,2.2 C24.0108,2.2 24.75,2.9392 24.75,3.85 L24.75,3.85 Z"></path>
        <path d="M15.95,2.75 C15.95,4.2691 14.7191,5.5 13.2,5.5 C11.6809,5.5 10.45,4.2691 10.45,2.75 C10.45,1.2309 11.6809,0 13.2,0 C14.7191,0 15.95,1.2309 15.95,2.75 L15.95,2.75 Z" ></path>
    </g>

</svg>